<?xml version="1.0" encoding="utf-8"?>
<!-- Generator: Adobe Illustrator 19.0.0, SVG Export Plug-In . SVG Version: 6.00 Build 0)  -->
<svg version="1.1" id="Layer_1" xmlns="http://www.w3.org/2000/svg" xmlns:xlink="http://www.w3.org/1999/xlink" x="0px" y="0px"
	 viewBox="-424 226 110 110" style="enable-background:new -424 226 110 110;" xml:space="preserve">
<style type="text/css">
	.st0{fill:#4850D8;}
	.st1{fill:#2BE7A2;}
</style>
<title>layar-handphone-bermasalah</title>
<path class="st0" d="M-342.6,240.5c0.1-1.2-0.8-2.3-2-2.4c-0.1,0-0.3,0-0.4,0h-48.3c-1.5,0-2.1,0.9-2.1,2.4v80.7
	c0,1.5,0.6,2.6,2.1,2.6h48.3c1.3,0,2.4-1.1,2.4-2.4c0-0.1,0-0.2,0-0.2L-342.6,240.5L-342.6,240.5z M-374.9,240.8h11.7
	c0.6,0.1,1,0.6,1,1.3c-0.1,0.5-0.5,0.9-1,1h-11.7c-0.6-0.1-1-0.6-1-1.3C-375.8,241.3-375.5,240.9-374.9,240.8L-374.9,240.8z
	 M-369.1,320.8c-1.5,0-2.7-1.2-2.7-2.7s1.2-2.7,2.7-2.7s2.7,1.2,2.7,2.7C-366.4,319.6-367.6,320.8-369.1,320.8L-369.1,320.8z
	 M-346.6,246.8v65.5h-44.6V245h44.6V246.8z"/>
<g>
	<path class="st1" d="M-379.1,277.4h7.3l1.8-3.8h-11.7c-0.6,0-1.2,0.1-1.2,0.7v10.8c0,0.6,0.6,1.3,1.2,1.3h5.8l1.8-4h-5
		L-379.1,277.4L-379.1,277.4z"/>
	<path class="st1" d="M-354.8,276.8h-1.3v-2.6c0-0.6-0.3-0.7-0.9-0.7h-6.4l1.7-3.8c0.3-0.6,0-1.5-0.6-1.8s-1.4-0.1-1.7,0.6l-4,8.6
		l-2.3,5.1l-3.5,7.6c-0.3,0.6,0,1.4,0.6,1.7c0.2,0.1,0.4,0.1,0.5,0.1c0.5,0,1-0.1,1.2-0.6l2.2-4.7h12.3c0.6,0,0.9-0.8,0.9-1.3v-1.9
		h1.3c0.6,0,1-0.7,1-1.3v-4.4C-353.8,276.9-354.2,276.8-354.8,276.8z M-360.1,282.4h-7.3l2.3-5h5V282.4z"/>
</g>
</svg>
