<svg xmlns="http://www.w3.org/2000/svg" width="200" height="200" viewBox="0 0 200 200"><g fill="none" fill-rule="evenodd"><path fill="#4950D8" fill-rule="nonzero" d="M61.364 90.654a1.765 1.765 0 0 0 2.408.644l4.288-2.48a1.765 1.765 0 0 0 .643-2.408l-2.48-4.288a1.765 1.765 0 0 0-2.408-.65l-4.288 2.48a1.772 1.772 0 0 0-.643 2.408l2.48 4.294zm-5.13 8.883H51.23a1.772 1.772 0 0 0-1.765 1.765v4.966c0 .975.79 1.766 1.765 1.766h5.002a1.772 1.772 0 0 0 1.765-1.766v-4.966a1.772 1.772 0 0 0-1.75-1.765h-.015zm9.996 2.723l2.48-4.288a1.765 1.765 0 0 0-.643-2.408l-4.288-2.487a1.765 1.765 0 0 0-2.408.643l-2.487 4.288a1.772 1.772 0 0 0 .643 2.408l4.288 2.48a1.772 1.772 0 0 0 2.43-.622l-.015-.014zm-9.997-25.955h-5.002a1.772 1.772 0 0 0-1.765 1.765v5.003c0 .974.79 1.765 1.765 1.765h5.002a1.772 1.772 0 0 0 1.765-1.765V78.07a1.765 1.765 0 0 0-1.75-1.736l-.015-.029zm88.24 57.018a7.089 7.089 0 1 0 .014 14.178 7.089 7.089 0 0 0-.015-14.178zM112.1 86.874a4.466 4.466 0 0 1-4.366-3.516l-5.374-.657v22.446h10.99a6.682 6.682 0 0 1 6.66 6.588l.036 3.43 12.313-16.143-1.43-12.148H112.1z"/><path fill="#4950D8" fill-rule="nonzero" d="M99.801 0C44.681.004 0 44.69 0 99.81c.001 55.122 44.685 99.806 99.806 99.807 55.12.001 99.807-44.68 99.811-99.801A99.808 99.808 0 0 0 99.801 0zm-8.946 40.547a13.134 13.134 0 0 1 6.295 1.6h12.284a2.715 2.715 0 0 1 2.558 4.038l-.986 2.022a5.217 5.217 0 0 1-4.287 2.78l-2.894.057A13.213 13.213 0 1 1 90.89 40.532l-.035.015zm53.952 118.53a18.794 18.794 0 0 1-18.251-23.267h-5.974l.05 4.595a6.56 6.56 0 0 1-6.496 6.624h-.186a6.617 6.617 0 0 1-6.602-6.61v-4.609H86.303a18.794 18.794 0 1 1-36.502 0h-6.825a6.953 6.953 0 0 1-6.953-6.931V73.854a3.309 3.309 0 0 1 3.302-3.308H71.16a3.309 3.309 0 0 1 3.302 3.308v36.816h7.86v-34.3c0-2.48 1.022-4.502 4.502-4.502h10.72c.285-.036 23.795 2.858 23.795 2.858a4.874 4.874 0 0 1 2.673 1.272 6.903 6.903 0 0 1 2-4.288c2.716-2.715 7.404-2.972 9.834 0 9.29 11.327 20.43 38.825 24.16 52.26.552 1.853.67 3.81.344 5.716a18.78 18.78 0 0 1-15.507 29.392h-.036z"/><path fill="#4950D8" fill-rule="nonzero" d="M68.133 133.333a7.089 7.089 0 1 0 7.089 7.09 7.103 7.103 0 0 0-7.089-7.09z"/><path fill="#2BE7A3" d="M43.713 91.298a1.772 1.772 0 0 0 2.409-.644l2.48-4.287a1.772 1.772 0 0 0-.644-2.408l-4.288-2.48a1.772 1.772 0 0 0-2.408.643l-2.48 4.288a1.772 1.772 0 0 0 .665 2.408l4.266 2.48zm2.423 2.386a1.772 1.772 0 0 0-2.408-.643l-4.288 2.487a1.765 1.765 0 0 0-.643 2.408l2.48 4.288a1.772 1.772 0 0 0 2.408.643l4.287-2.48a1.772 1.772 0 0 0 .644-2.408l-2.48-4.295z"/></g></svg>