<svg id="Layer_1" data-name="Layer 1" xmlns="http://www.w3.org/2000/svg" viewBox="0 0 110 110"><defs><style>.cls-1{fill:#4850d8;}.cls-2{fill:#2be7a2;}</style></defs><title>layar-handphone-bermasalah</title><path class="cls-1" d="M80.73,15.51a2.18,2.18,0,0,0-2.39-2.36H30c-1.5,0-2.1.86-2.1,2.36V96.21c0,1.5.6,2.64,2.1,2.64H78.33a2.4,2.4,0,0,0,2.39-2.64V15.51Zm-32.37.3H60.08a1.12,1.12,0,0,1,0,2.22H48.35a1.12,1.12,0,0,1,0-2.22Zm5.86,79.94a2.68,2.68,0,1,1,2.68-2.68A2.68,2.68,0,0,1,54.22,95.75ZM76.73,21.83V87.3H32.11V20H76.73Z"/><path class="cls-2" d="M66.08,44.06l.05-.05-.8-.8-.63-.63-.8-.8-.05.05A15.29,15.29,0,0,0,42.35,63.36l-.05.05.8.8.62.62.8.8.05-.05A15.29,15.29,0,0,0,66.08,44.06Zm-24,9.65a12.15,12.15,0,0,1,19.57-9.63l-1.87,1.87L46.45,59.26l-1.86,1.87A12.09,12.09,0,0,1,42.06,53.71ZM54.22,65.87a12.1,12.1,0,0,1-7.41-2.53l1.87-1.87L62,48.16l1.87-1.87a12.15,12.15,0,0,1-9.63,19.57Z"/></svg>